REM DIRINDEX 1\2\4,1\2\5,1\2\6,1\3\7,1\3\8
REM DIRNAME folder01,folder02,folder03,folder04,folder05,folder06,folder07,folder08
TITLE ""
FILE "040_Proficiency Test05.mp3" MP3
  TRACK 01 AUDIO
    TITLE "0:"
    INDEX 01 00:00:00
  TRACK 02 AUDIO
    TITLE "8:cjc128_3952"
    INDEX 01 00:00:25
  TRACK 03 AUDIO
    TITLE "0:"
    INDEX 01 00:02:45
  TRACK 04 AUDIO
    TITLE "8:cjc128_3953"
    INDEX 01 00:03:19
  TRACK 05 AUDIO
    TITLE "0:"
    INDEX 01 00:05:24
  TRACK 06 AUDIO
    TITLE "7:cjc128_3954"
    INDEX 01 00:06:16
  TRACK 07 AUDIO
    TITLE "0:"
    INDEX 01 00:09:42
  TRACK 08 AUDIO
    TITLE "8:cjc128_3955"
    INDEX 01 00:13:26
  TRACK 09 AUDIO
    TITLE "0:"
    INDEX 01 00:15:34
  TRACK 10 AUDIO
    TITLE "7:cjc128_3956"
    INDEX 01 00:16:02
  TRACK 11 AUDIO
    TITLE "0:"
    INDEX 01 00:20:06
  TRACK 12 AUDIO
    TITLE "8:cjc128_3957"
    INDEX 01 00:24:39
  TRACK 13 AUDIO
    TITLE "0:"
    INDEX 01 00:26:34
  TRACK 14 AUDIO
    TITLE "7:cjc128_3958"
    INDEX 01 00:27:14
  TRACK 15 AUDIO
    TITLE "0:"
    INDEX 01 00:31:55
  TRACK 16 AUDIO
    TITLE "8:cjc128_3959"
    INDEX 01 00:37:07
  TRACK 17 AUDIO
    TITLE "0:"
    INDEX 01 00:39:13
  TRACK 18 AUDIO
    TITLE "7:cjc128_3960"
    INDEX 01 00:39:68
  TRACK 19 AUDIO
    TITLE "0:"
    INDEX 01 00:44:01
  TRACK 20 AUDIO
    TITLE "8:cjc128_3961"
    INDEX 01 00:48:69
  TRACK 21 AUDIO
    TITLE "0:"
    INDEX 01 00:50:46
  TRACK 22 AUDIO
    TITLE "7:cjc128_3962"
    INDEX 01 00:51:18
  TRACK 23 AUDIO
    TITLE "0:"
    INDEX 01 00:54:23
  TRACK 24 AUDIO
    TITLE "8:cjc128_3963"
    INDEX 01 00:57:54
  TRACK 25 AUDIO
    TITLE "0:"
    INDEX 01 00:59:55
  TRACK 26 AUDIO
    TITLE "7:cjc128_3964"
    INDEX 01 01:00:25
  TRACK 27 AUDIO
    TITLE "0:"
    INDEX 01 01:02:69
  TRACK 28 AUDIO
    TITLE "8:cjc128_3965"
    INDEX 01 01:05:66
  TRACK 29 AUDIO
    TITLE "0:"
    INDEX 01 01:07:66
  TRACK 30 AUDIO
    TITLE "7:cjc128_3966"
    INDEX 01 01:08:50
  TRACK 31 AUDIO
    TITLE "0:"
    INDEX 01 01:12:42
  TRACK 32 AUDIO
    TITLE "8:cjc128_3967"
    INDEX 01 01:17:04
  TRACK 33 AUDIO
    TITLE "0:"
    INDEX 01 01:19:09
  TRACK 34 AUDIO
    TITLE "7:cjc128_3968"
    INDEX 01 01:19:70
  TRACK 35 AUDIO
    TITLE "0:"
    INDEX 01 01:23:09
  TRACK 36 AUDIO
    TITLE "8:cjc128_3969"
    INDEX 01 01:26:52
  TRACK 37 AUDIO
    TITLE "0:"
    INDEX 01 01:28:57
  TRACK 38 AUDIO
    TITLE "7:cjc128_3970"
    INDEX 01 01:29:37
  TRACK 39 AUDIO
    TITLE "0:"
    INDEX 01 01:32:57
  TRACK 40 AUDIO
    TITLE "8:cjc128_3971"
    INDEX 01 01:36:37
  TRACK 41 AUDIO
    TITLE "0:"
    INDEX 01 01:38:47
  TRACK 42 AUDIO
    TITLE "7:cjc128_3972"
    INDEX 01 01:39:29
  TRACK 43 AUDIO
    TITLE "0:"
    INDEX 01 01:41:71
  TRACK 44 AUDIO
    TITLE "8:cjc128_3973"
    INDEX 01 01:44:73
  TRACK 45 AUDIO
    TITLE "0:"
    INDEX 01 01:47:07
  TRACK 46 AUDIO
    TITLE "7:cjc128_3974"
    INDEX 01 01:47:56
  TRACK 47 AUDIO
    TITLE "0:"
    INDEX 01 01:51:05
  TRACK 48 AUDIO
    TITLE "8:cjc128_3975"
    INDEX 01 01:54:62
  TRACK 49 AUDIO
    TITLE "0:"
    INDEX 01 01:56:69
  TRACK 50 AUDIO
    TITLE "7:cjc128_3976"
    INDEX 01 01:57:51
  TRACK 51 AUDIO
    TITLE "0:"
    INDEX 01 02:01:72
  TRACK 52 AUDIO
    TITLE "8:cjc128_3977"
    INDEX 01 02:07:08
  TRACK 53 AUDIO
    TITLE "0:"
    INDEX 01 02:09:09
  TRACK 54 AUDIO
    TITLE "7:cjc128_3978"
    INDEX 01 02:09:64
  TRACK 55 AUDIO
    TITLE "0:"
    INDEX 01 02:12:23
